:SAMPLES-PER-SECOND 30
:FRAME-RANGE 1-3549
:FULLY-SPECIFIED
:DEGREES
1664
root  -18.8742 38.5998 0.0370336 6.72604 -4.97955 2.02721
RightUpLeg  -26.9124 2.65849 -0.0316173
RightLeg  -3.17032 -20.3623 2.3562
RightFoot  -5.79934 -0.261378 4.58157
RightToes  1.218e-010 1.26228e-014 -6.01869e-014
Spine  -4.26621 -3.69619 -8.18127
Spine1  8.62692 -3.6362 2.31756
HEad  13.9981 -34.3721 11.0621
LeftShoulder1  1.70841 -4.34648 -15.8029
LeftArm  23.5595 -10.7332 -45.8594
LeftForeArm  23.0602 -18.0568 -6.96935
LeftHand  -0.0530002 4.53589 4.41307
RightShoulder  1.01512 -0.0743031 25.2282
RightArm  -19.2216 -0.17821 54.1474
RightForeArm  76.2901 -4.45801 6.56344
RightHand  0.167508 -7.01442 -13.4823
LeftUpLeg  -1.35708 1.70238 -7.64409
LeftLeg  16.5746 7.90294 2.73913
LeftFoot  -19.6877 0.156423 0.524657
LeftToes  -1.43952e-010 7.51141e-011 -1.22592e-011
1665
root  -18.7632 38.2427 1.74821 5.92101 -6.76416 2.46941
RightUpLeg  -27.1758 3.42577 0.526067
RightLeg  -2.58952 -23.4591 2.06452
RightFoot  -7.46885 -0.23059 5.31355
RightToes  1.218e-010 1.26228e-014 -6.01869e-014
Spine  -4.64346 -3.87536 -8.1394
Spine1  8.50848 -3.93848 2.68741
HEad  13.4608 -35.4002 10.4094
LeftShoulder1  1.6833 -4.0709 -16.341
LeftArm  21.9092 -9.86983 -46.249
LeftForeArm  26.8277 -16.0733 -8.39796
LeftHand  -0.046708 4.6422 3.90888
RightShoulder  0.931137 -0.395142 25.806
RightArm  -23.6192 -1.22001 52.8691
RightForeArm  79.9164 -5.04384 4.39481
RightHand  0.245508 -7.69295 -13.5262
LeftUpLeg  1.48899 2.93683 -8.47974
LeftLeg  18.3272 8.03032 2.74492
LeftFoot  -21.2592 0.0339086 -1.07928
LeftToes  -1.43952e-010 7.51141e-011 -1.22592e-011
1666
root  -18.6021 37.9737 3.45061 5.33826 -8.39777 2.35167
RightUpLeg  -28.5068 1.81385 2.09656
RightLeg  4.18322 -23.352 0.497301
RightFoot  -6.00667 -0.12184 1.73868
RightToes  1.218e-010 1.26228e-014 -6.01869e-014
Spine  -4.95312 -4.05292 -6.82452
Spine1  8.87951 -4.42902 2.98265
HEad  11.703 -35.933 9.94389
LeftShoulder1  1.72224 -3.97265 -17.2582
LeftArm  18.7225 -8.36157 -46.5287
LeftForeArm  31.3405 -13.9363 -9.68967
LeftHand  -0.0406724 4.78277 3.44057
RightShoulder  0.834501 -0.733012 26.2352
RightArm  -28.1525 -2.47161 50.9104
RightForeArm  82.3581 -4.50824 1.81983
RightHand  0.329334 -8.4078 -13.6072
LeftUpLeg  3.69283 5.65987 -8.48496
LeftLeg  20.7227 6.20505 2.55788
LeftFoot  -21.4697 -0.186885 -3.56116
LeftToes  -1.43952e-010 7.51141e-011 -1.22592e-011
1667
root  -18.4625 37.927 5.10709 5.04553 -8.91748 1.02925
RightUpLeg  -29.2559 1.3879 4.31697
RightLeg  10.2333 -22.0104 -2.66107
RightFoot  -1.02187 0.352809 -3.97956
RightToes  1.218e-010 1.26228e-014 -6.01869e-014
Spine  -5.50005 -4.45461 -4.22546
Spine1  10.1721 -5.54545 3.97815
HEad  9.68985 -36.9249 9.67427
LeftShoulder1  1.80324 -4.02957 -18.2565
LeftArm  14.8994 -6.70475 -46.9631
LeftForeArm  35.4038 -11.2227 -11.0587
LeftHand  -0.0357547 4.96989 3.32509
RightShoulder  0.668413 -1.25195 26.2666
RightArm  -30.915 -4.32902 48.5493
RightForeArm  81.5246 -4.26712 0.183523
RightHand  0.382068 -8.85439 -13.6508
LeftUpLeg  4.68688 8.2568 -6.53236
LeftLeg  24.8448 3.13319 1.92953
LeftFoot  -19.1876 -0.369467 -7.05643
LeftToes  -1.43952e-010 7.51141e-011 -1.22592e-011
1668
root  -18.3989 37.7895 6.71675 4.68347 -9.57782 -0.947311
RightUpLeg  -30.5108 -0.607404 7.65559
RightLeg  18.0851 -18.0272 -6.4252
RightFoot  1.98142 0.349507 -2.87448
RightToes  1.218e-010 1.26228e-014 -6.01869e-014
Spine  -4.84116 -4.79643 -1.65965
Spine1  10.0206 -6.35534 5.18939
HEad  8.3207 -38.9776 10.2762
LeftShoulder1  1.8501 -3.96905 -19.1726
LeftArm  10.2268 -5.53889 -47.7569
LeftForeArm  39.1393 -6.9851 -12.6045
LeftHand  -0.0340992 5.04418 3.3776
RightShoulder  0.548596 -1.65145 26.8222
RightArm  -31.2255 -6.03044 45.2048
RightForeArm  79.0697 -4.34152 0.000287816
RightHand  0.362118 -8.76145 -13.3531
LeftUpLeg  2.77654 10.7097 -2.93237
LeftLeg  34.552 -0.658706 -0.12256
LeftFoot  -13.8249 -0.188836 -12.4793
LeftToes  -1.43952e-010 7.51141e-011 -1.22592e-011
1669
root  -18.3736 37.5783 8.26867 4.35046 -12.4697 -2.31865
RightUpLeg  -30.8906 -0.811936 9.58187
RightLeg  24.2863 -14.5194 -7.25932
RightFoot  1.63021 0.583621 -5.02897
RightToes  1.218e-010 1.26228e-014 -6.01869e-014
Spine  -4.0156 -4.58333 -0.322693
Spine1  9.63611 -6.29297 6.05072
HEad  7.91005 -41.1081 11.181
LeftShoulder1  1.81438 -3.89315 -18.9264
LeftArm  6.44015 -3.55355 -48.9986
LeftForeArm  41.1848 -3.68194 -13.1558
LeftHand  -0.0349158 4.94127 2.79528
RightShoulder  0.586814 -1.52814 26.6969
RightArm  -31.7306 -6.79825 43.1913
RightForeArm  78.3336 -4.30773 -0.380165
RightHand  0.291853 -8.38457 -12.3454
LeftUpLeg  -1.34119 13.2937 -0.146274
LeftLeg  46.5387 -2.64439 -2.5625
LeftFoot  -4.2027 1.07788 -16.7764
LeftToes  -1.43952e-010 7.51141e-011 -1.22592e-011
1670
root  -18.3291 37.4231 9.57271 4.09384 -15.623 -3.28224
RightUpLeg  -30.3292 2.21491 10.0925
RightLeg  28.6801 -14.3371 -8.57153
RightFoot  -0.713239 0.498681 -5.40505
RightToes  1.218e-010 1.26228e-014 -6.01869e-014
Spine  -3.65501 -4.62869 0.57123
Spine1  10.8767 -6.4058 6.65847
HEad  7.59968 -43.5468 12.9657
LeftShoulder1  1.77099 -3.83086 -18.5073
LeftArm  5.15204 -1.84601 -49.191
LeftForeArm  41.9601 -2.13191 -13.3313
LeftHand  -0.0341241 4.73739 1.79037
RightShoulder  0.557117 -1.62441 26.8018
RightArm  -31.4178 -6.06516 42.3096
RightForeArm  78.0604 -4.34203 -0.247246
RightHand  0.223951 -8.04963 -10.9932
LeftUpLeg  -6.8969 13.4256 0.960818
LeftLeg  57.0663 -2.90102 -4.29961
LeftFoot  5.3726 2.31483 -15.8958
LeftToes  -1.43952e-010 7.51141e-011 -1.22592e-011
1671
root  -18.241 37.4992 10.9085 4.02499 -19.6141 -3.83241
RightUpLeg  -28.4948 5.04645 10.0729
RightLeg  30.3593 -13.1794 -8.44358
RightFoot  -2.94235 0.278297 -4.05737
RightToes  1.218e-010 1.26228e-014 -6.01869e-014
Spine  -2.85482 -4.51895 1.0894
Spine1  10.5071 -6.22079 6.66471
HEad  8.38484 -45.9432 13.4532
LeftShoulder1  1.67895 -3.31478 -19.0928
LeftArm  5.75045 -0.371293 -48.1
LeftForeArm  41.7398 -1.19323 -13.6876
LeftHand  -0.0352928 4.76294 1.23209
RightShoulder  0.527123 -1.7361 27.2407
RightArm  -28.8969 -5.13327 41.4457
RightForeArm  76.9392 -4.65594 1.3203
RightHand  0.202827 -7.90738 -10.6447
LeftUpLeg  -11.9644 12.7832 1.26748
LeftLeg  64.1383 -2.27784 -4.4739
LeftFoot  2.96975 1.73332 -13.8959
LeftToes  -1.43952e-010 7.51141e-011 -1.22592e-011
1672
root  -18.12 37.6978 12.2531 3.98209 -24.0796 -4.00053
RightUpLeg  -26.1807 6.34549 9.7656
RightLeg  30.6041 -10.5521 -6.91284
RightFoot  -4.75776 0.160601 -3.34978
RightToes  1.218e-010 1.26228e-014 -6.01869e-014
Spine  -2.41192 -4.27813 1.17003
Spine1  10.3907 -5.9533 6.59349
HEad  9.04355 -47.8372 13.1568
LeftShoulder1  1.61264 -2.97017 -19.453
LeftArm  4.67395 1.07983 -47.3077
LeftForeArm  42.3512 0.450235 -13.7713
LeftHand  -0.0293069 4.82278 1.9395
RightShoulder  0.527828 -1.73485 27.2604
RightArm  -26.508 -4.30914 41.7541
RightForeArm  75.3349 -4.9691 2.78462
RightHand  0.171549 -7.4722 -11.0159
LeftUpLeg  -16.5488 11.375 1.51198
LeftLeg  67.0247 -1.19637 -2.37152
LeftFoot  0.216912 1.19319 -11.7717
LeftToes  -1.43952e-010 7.51141e-011 -1.22592e-011
